HIERARCHY
ROOT Hips
{
	OFFSET 0.000000 0.000000 0.000000 
	CHANNELS 6 Xposition Yposition Zposition Zrotation Yrotation Xrotation
	JOINT LeftUpLeg
	{
		OFFSET 1.363060 -1.794630 0.839290 
		CHANNELS 3 Zrotation Yrotation Xrotation
		JOINT LeftLeg
		{
			OFFSET 2.448110 -6.726130 0.000000 
			CHANNELS 3 Zrotation Yrotation Xrotation
			JOINT LeftFoot
			{
				OFFSET 2.562200 -7.039590 0.000000 
				CHANNELS 3 Zrotation Yrotation Xrotation
				JOINT LeftToeBase
				{
					OFFSET 0.157640 -0.433110 2.322550 
					CHANNELS 3 Zrotation Yrotation Xrotation
					End Site
					{
						OFFSET 0.000000 0.000000 0.000000 
					}
				}
			}
		}
	}
	JOINT RightUpLeg
	{
		OFFSET -1.305520 -1.794630 0.839290 
		CHANNELS 3 Zrotation Yrotation Xrotation
		JOINT RightLeg
		{
			OFFSET -2.542530 -6.985550 0.000000 
			CHANNELS 3 Zrotation Yrotation Xrotation
			JOINT RightFoot
			{
				OFFSET -2.568260 -7.056230 0.000000 
				CHANNELS 3 Zrotation Yrotation Xrotation
				JOINT RightToeBase
				{
					OFFSET -0.164730 -0.452590 2.363150 
					CHANNELS 3 Zrotation Yrotation Xrotation
					End Site
					{
						OFFSET 0.000000 0.000000 0.000000 
					}
				}
			}
		}
	}
	JOINT Spine
	{
		OFFSET 0.028270 2.035590 -0.193380 
		CHANNELS 3 Zrotation Yrotation Xrotation
		JOINT Spine1
		{
			OFFSET 0.056720 2.048850 -0.042750 
			CHANNELS 3 Zrotation Yrotation Xrotation
			JOINT Neck1
			{
				OFFSET -0.054170 1.746240 0.172020 
				CHANNELS 3 Zrotation Yrotation Xrotation
				JOINT Head
				{
					OFFSET 0.104070 1.761360 -0.123970 
					CHANNELS 3 Zrotation Yrotation Xrotation
					End Site
					{
						OFFSET 0.000000 0.000000 0.000000 
					}
				}
			}
			JOINT LeftArm
			{
				OFFSET 3.362410 1.200890 -0.311210 
				CHANNELS 3 Zrotation Yrotation Xrotation
				JOINT LeftForeArm
				{
					OFFSET 4.983000 -0.000000 -0.000000 
					CHANNELS 3 Zrotation Yrotation Xrotation
					JOINT LeftHand
					{
						OFFSET 3.483560 -0.000000 -0.000000 
						CHANNELS 3 Zrotation Yrotation Xrotation
						JOINT LeftHandIndex1
						{
							OFFSET 0.715260 -0.000000 -0.000000 
							CHANNELS 3 Zrotation Yrotation Xrotation
							End Site
							{
								OFFSET 0.000000 0.000000 0.000000 
							}
						}
					}
				}
			}
			JOINT RightArm
			{
				OFFSET -3.136600 1.374050 -0.404650 
				CHANNELS 3 Zrotation Yrotation Xrotation
				JOINT RightForeArm
				{
					OFFSET -5.241900 -0.000000 -0.000000 
					CHANNELS 3 Zrotation Yrotation Xrotation
					JOINT RightHand
					{
						OFFSET -3.444170 -0.000000 -0.000000 
						CHANNELS 3 Zrotation Yrotation Xrotation
						JOINT RightHandIndex1
						{
							OFFSET -0.622530 -0.000000 -0.000000 
							CHANNELS 3 Zrotation Yrotation Xrotation
							End Site
							{
								OFFSET 0.000000 0.000000 0.000000 
							}
						}
					}
				}
			}
		}
	}
}
MOTION
Frames: 15
Frame Time: 0.041667
1.767715 18.273775 4.087727 -93.310816 -81.226366 99.430584 -1.753377 -3.023132 -25.384522 7.257136 16.300366 50.540832 -0.209482 2.800380 4.335550 0.961400 -6.243200 -17.491800 30.599775 4.947078 -5.189097 0.273240 -5.353635 13.294760 2.112694 -12.136385 -1.893175 -0.748600 -5.526400 15.416300 1.547398 1.866026 -4.979900 2.603445 0.685670 -1.333418 0.998957 -1.378410 5.691587 0.825100 -1.045500 6.859200 -73.790572 8.126695 19.996782 42.375652 -53.374945 -19.284698 -0.354829 1.945870 7.783297 -7.125000 0.000000 0.000000 63.855196 13.880090 16.400507 -33.961740 46.280424 -16.688358 -0.370333 0.489168 -12.769002 7.125000 0.000000 0.000000 
1.629489 18.280022 4.084100 -93.361392 -81.107260 99.504898 -1.543867 -3.195061 -25.874825 6.857791 15.990678 49.127323 -0.285964 3.156299 3.972558 0.968700 -6.266200 -17.558600 30.811949 4.876456 -4.428571 0.314100 -5.158923 12.763251 2.129971 -12.209925 -2.083466 -0.725100 -5.440900 15.170400 1.478925 2.049795 -5.021287 2.293333 0.776555 -1.360265 0.729948 -1.326959 5.939240 0.748000 -1.054900 6.942800 -73.814388 8.134503 20.913643 44.884348 -54.567408 -20.886396 -0.406950 1.889190 7.975892 -7.125000 0.000000 0.000000 62.690809 14.711564 16.193736 -35.689012 47.326815 -17.985875 -0.360029 0.486097 -13.365928 7.125000 0.000000 0.000000 
1.491969 18.283346 4.081682 -93.351422 -80.979965 99.535026 -1.322367 -3.377830 -26.329262 6.435762 15.646393 47.605853 -0.376046 3.572135 3.641172 0.971700 -6.275600 -17.586100 31.024264 4.810745 -3.728975 0.347531 -4.989868 12.305050 2.143845 -12.266089 -2.296884 -0.700800 -5.351100 14.912700 1.412972 2.225494 -5.062275 1.984624 0.862803 -1.381984 0.458716 -1.266427 6.177405 0.669600 -1.060500 7.022400 -73.891581 8.165650 21.745989 47.555671 -55.728936 -22.629717 -0.453931 1.835226 8.260359 -7.125000 0.000000 0.000000 61.481782 15.590785 15.799808 -37.322727 48.246968 -19.232005 -0.351313 0.485731 -13.949364 7.125000 0.000000 0.000000 
1.355456 18.283951 4.080574 -93.287361 -80.846138 99.528250 -1.090752 -3.573068 -26.748863 5.994348 15.266344 45.980710 -0.480331 4.046116 3.341630 0.971800 -6.276100 -17.587600 31.233478 4.750891 -3.099019 0.373563 -4.849914 11.929669 2.153036 -12.299054 -2.540094 -0.672800 -5.245200 14.609200 1.348382 2.390664 -5.105008 1.672324 0.943015 -1.407204 0.188131 -1.192061 6.404615 0.590400 -1.059300 7.097600 -74.021992 8.235092 22.490944 50.416442 -56.852931 -24.532359 -0.496169 1.782451 8.605698 -7.125000 0.000000 0.000000 60.238559 16.511678 15.235593 -38.832027 49.037127 -20.398589 -0.344484 0.487536 -14.547751 7.125000 0.000000 0.000000 
1.220052 18.281734 4.080675 -93.209409 -80.708961 99.525916 -0.852603 -3.774821 -27.130527 5.535041 14.847118 44.247608 -0.601626 4.587843 3.088138 0.968800 -6.266500 -17.559800 31.435547 4.700449 -2.541225 0.392565 -4.741111 11.642103 2.156642 -12.304697 -2.809280 -0.643600 -5.132300 14.286400 1.283887 2.548173 -5.150228 1.356017 1.018570 -1.437922 -0.080834 -1.105278 6.620278 0.509700 -1.051500 7.167000 -74.207900 8.337387 23.154119 53.451977 -57.916464 -26.583336 -0.534076 1.731614 8.963490 -7.125000 0.000000 0.000000 58.971960 17.472712 14.507819 -40.178740 49.691607 -21.451333 -0.339680 0.490956 -15.174795 7.125000 0.000000 0.000000 
1.085151 18.276697 4.081682 -93.146502 -80.570679 99.554814 -0.609559 -3.980502 -27.469139 5.061390 14.387375 42.409830 -0.741048 5.198367 2.894015 0.962200 -6.245800 -17.499200 31.630193 4.662178 -2.048515 0.405296 -4.662449 11.438945 2.155700 -12.289683 -3.100867 -0.612200 -5.007800 13.930700 1.220080 2.700272 -5.194702 1.043636 1.090995 -1.461209 -0.348399 -1.007918 6.826368 0.427100 -1.038000 7.232700 -74.453349 8.457334 23.751572 56.661555 -58.904656 -28.780057 -0.571089 1.683790 9.293113 -7.125000 0.000000 0.000000 57.684357 18.481365 13.612394 -41.328005 50.207475 -22.359478 -0.336570 0.495459 -15.840040 7.125000 0.000000 0.000000 
0.950452 18.269141 4.083597 -93.134798 -80.434080 99.649505 -0.366125 -4.183210 -27.760187 4.576808 13.884841 40.467092 -0.900335 5.881890 2.770410 0.953600 -6.218500 -17.419700 31.813349 4.634407 -1.615044 0.412470 -4.611890 11.313967 2.149632 -12.251274 -3.415377 -0.578200 -4.869100 13.535500 1.156269 2.848579 -5.237440 0.736914 1.161740 -1.472348 -0.613819 -0.904259 7.023043 0.342200 -1.020600 7.294600 -74.765965 8.575557 24.286956 60.007338 -59.791256 -31.091416 -0.610032 1.638731 9.561055 -7.125000 0.000000 0.000000 56.380407 19.538370 12.561776 -42.240228 50.579365 -23.087193 -0.334781 0.501088 -16.532151 7.125000 0.000000 0.000000 
0.817364 18.259167 4.087123 -93.185307 -80.302942 99.826453 -0.128837 -4.387481 -28.012930 4.085006 13.338026 38.422073 -1.078313 6.632032 2.738615 0.939600 -6.174100 -17.290400 31.973667 4.607130 -1.248581 0.415410 -4.584448 11.253621 2.137240 -12.186449 -3.731830 -0.541900 -4.716600 13.101900 1.090387 2.998922 -5.282568 0.433445 1.232327 -1.487596 -0.811923 -0.791415 7.248760 0.295900 -0.996300 7.378300 -75.135899 8.702244 24.802222 63.497962 -60.564663 -33.517912 -0.654945 1.594916 9.740994 -7.125000 0.000000 0.000000 55.053008 20.634547 11.362721 -42.896019 50.808509 -23.614379 -0.333808 0.507971 -17.236130 7.125000 0.000000 0.000000 
0.684881 18.246775 4.091959 -93.329281 -80.177142 100.110645 0.103813 -4.587986 -28.215995 3.590129 12.744891 36.275184 -1.272551 7.438796 2.811897 0.919700 -6.110100 -17.104200 32.112604 4.576590 -0.929555 0.415135 -4.574292 11.241041 2.119662 -12.100637 -4.042500 -0.502500 -4.544300 12.613300 1.022158 3.151513 -5.327401 0.132447 1.303347 -1.496635 -0.960856 -0.678065 7.501585 0.275400 -0.970300 7.483100 -75.569003 8.821683 25.300927 67.080756 -61.200556 -36.021374 -0.704889 1.551879 9.843083 -7.125000 0.000000 0.000000 53.703276 21.770968 10.034216 -43.274089 50.894178 -23.920765 -0.333106 0.516335 -17.921604 7.125000 0.000000 0.000000 
0.551391 18.232368 4.096895 -93.519078 -80.050427 100.441290 0.343949 -4.780741 -28.348893 3.094437 12.101025 34.018746 -1.476473 8.278268 3.008558 0.900700 -6.048400 -16.924900 32.247327 4.541085 -0.625667 0.412753 -4.574765 11.257558 2.101431 -12.014125 -4.357868 -0.460600 -4.353500 12.073200 0.953722 3.299705 -5.370234 -0.161078 1.372686 -1.497895 -1.110577 -0.565400 7.736685 0.248500 -0.942800 7.573900 -76.074473 8.917459 25.776419 70.638352 -61.672810 -38.514259 -0.754748 1.505427 9.892630 -7.125000 0.000000 0.000000 52.355568 22.928100 8.603558 -43.395863 50.854052 -24.021031 -0.332321 0.526094 -18.554153 7.125000 0.000000 0.000000 
0.416490 18.215644 4.101832 -93.727966 -79.919683 100.789027 0.597561 -4.972931 -28.405788 2.602908 11.405052 31.655585 -1.682741 9.124959 3.322160 0.880200 -5.980900 -16.729000 32.382682 4.494347 -0.324129 0.409299 -4.580434 11.287956 2.082660 -11.928817 -4.675819 -0.417800 -4.148800 11.495500 0.887439 3.438334 -5.409337 -0.441493 1.437900 -1.486091 -1.267915 -0.453120 7.956636 0.211000 -0.914100 7.653300 -76.657050 8.994573 26.236018 74.157515 -61.986626 -40.997006 -0.805056 1.459948 9.907210 -7.125000 0.000000 0.000000 51.012921 24.103874 7.096406 -43.280857 50.699525 -23.928938 -0.330989 0.537247 -19.112338 7.125000 0.000000 0.000000 
0.279473 18.197106 4.106063 -93.892487 -79.780710 101.085588 0.874742 -5.177576 -28.380083 2.121671 10.658564 29.197880 -1.876817 9.926673 3.742958 0.853000 -5.890200 -16.466200 32.531117 4.437792 -0.007980 0.405535 -4.586613 11.319095 2.066456 -11.858302 -5.003485 -0.374900 -3.932600 10.887100 0.824938 3.561675 -5.442341 -0.705669 1.497059 -1.452686 -1.464185 -0.346775 8.139721 0.141500 -0.886400 7.705500 -77.316841 9.049725 26.681429 77.579815 -62.146130 -43.435461 -0.854817 1.416905 9.895475 -7.125000 0.000000 0.000000 49.693133 25.286049 5.529280 -42.964170 50.447876 -23.672344 -0.328688 0.549444 -19.580317 7.125000 0.000000 0.000000 
0.141046 18.176655 4.110597 -94.026290 -79.633880 101.352705 1.174834 -5.416957 -28.284398 1.658998 9.866859 26.667078 -2.052508 10.665388 4.247965 0.821700 -5.783800 -16.158400 32.683490 4.366521 0.307972 0.401640 -4.592983 11.350382 2.048827 -11.785023 -5.333186 -0.333000 -3.708800 10.258900 0.764639 3.667477 -5.475491 -0.961896 1.547219 -1.416972 -1.645197 -0.237145 8.327972 0.074600 -0.854500 7.755800 -78.056697 9.097914 27.097780 80.854063 -62.163197 -45.800229 -0.901969 1.375818 9.850521 -7.125000 0.000000 0.000000 48.409980 26.461946 3.941247 -42.478975 50.112003 -23.277009 -0.324707 0.562514 -19.960750 7.125000 0.000000 0.000000 
0.000302 18.154490 4.114828 -94.098867 -79.476848 101.556272 1.507426 -5.706263 -28.110609 1.221581 9.035001 24.081335 -2.202756 11.317424 4.808515 0.787800 -5.666200 -15.818900 32.850168 4.285441 0.637585 0.397653 -4.599458 11.381773 2.031010 -11.714998 -5.672061 -0.292300 -3.476800 9.609000 0.708091 3.758072 -5.503024 -1.203552 1.590971 -1.358687 -1.843621 -0.133588 8.499283 -0.010900 -0.823300 7.791700 -78.857655 9.144809 27.508741 83.992305 -62.059199 -48.109174 -0.948905 1.338723 9.754795 -7.125000 0.000000 0.000000 47.167019 27.610437 2.337282 -41.868269 49.711214 -22.780267 -0.318698 0.576268 -20.276872 7.125000 0.000000 0.000000 
-0.142658 18.130815 4.119261 -94.138134 -79.314555 101.725206 1.868586 -6.063163 -27.864004 0.817211 8.172831 21.468730 -2.325353 11.879105 5.406853 0.761600 -5.573100 -15.550500 33.020052 4.194426 0.975303 0.393095 -4.607789 11.418152 2.010242 -11.635747 -6.018184 -0.253400 -3.239100 8.945000 0.654675 3.832556 -5.525379 -1.431875 1.627715 -1.279482 -2.043228 -0.031933 8.673161 -0.102900 -0.791300 7.827600 -79.725383 9.186553 27.890357 86.944099 -61.856815 -50.328155 -0.994279 1.305159 9.591445 -7.125000 0.000000 0.000000 45.967954 28.726563 0.737029 -41.156371 49.254173 -22.203096 -0.310196 0.590793 -20.556760 7.125000 0.000000 0.000000 
